# xmcd
#
# Track frame offsets:
#	150
#	17887
#	27519
#	42722
#	55520
#	66885
#	79308
#	91366
#	102701
#	116749
#	130458
#	143077
#
# Disc length: 2094 seconds
# Revision: 0
# Processed by: cddbd v1.5.2PL0 Copyright (c) Steve Scherf et al.
# Submitted via: dBpowerAMP V12.0
#
DISCID=b1082c0c
DTITLE=Olivia Newton-John - The Great Olivia Newton-John [Australian Edition • Disc 3]
DYEAR=1999
DGENRE=Country
TTITLE0=Angel Of The Morning
TTITLE1=Just A Little Too Much
TTITLE2=If We Only Have Love
TTITLE3=My Old Man's Got A Gun
TTITLE4=Changes
TTITLE5=I'm A Small And Lonely Light
TTITLE6=Why Don't You Write Me
TTITLE7=Mary Skeffington
TTITLE8=Behind That Locked Door
TTITLE9=Everything I Own
TTITLE10=Living In Harmony
TTITLE11=I Will Touch You
EXTD=
EXTT0=
EXTT1=
EXTT2=
EXTT3=
EXTT4=
EXTT5=
EXTT6=
EXTT7=
EXTT8=
EXTT9=
EXTT10=
EXTT11=
PLAYORDER=
